<svg width="243" height="68" viewBox="0 0 243 68" fill="none" xmlns="http://www.w3.org/2000/svg">
<g clip-path="url(#clip0_51_112)">
<rect width="243" height="68" rx="8" fill="black"/>
<g filter="url(#filter0_f_51_112)">
<circle cx="37" cy="110" r="70" fill="#F80D0D"/>
</g>
<g filter="url(#filter1_f_51_112)">
<circle cx="146.5" cy="132.5" r="69.5" fill="#1B3BE0"/>
</g>
<g filter="url(#filter2_f_51_112)">
<circle cx="276.5" cy="91.5" r="48.5" fill="#09C4FF"/>
</g>
<rect y="11" width="45" height="45" rx="4" fill="#D9D9D9" fill-opacity="0.23"/>
<rect x="229" y="11" width="45" height="45" rx="4" fill="#D9D9D9" fill-opacity="0.23"/>
<rect x="57" y="11" width="45" height="45" rx="4" fill="#D9D9D9" fill-opacity="0.23"/>
<rect x="113" y="11" width="45" height="45" rx="4" fill="#D9D9D9" fill-opacity="0.23"/>
<rect x="172" y="11" width="45" height="45" rx="4" fill="#D9D9D9" fill-opacity="0.23"/>
<path d="M18.9088 40V29.36H23.3288C24.1554 29.36 24.9221 29.4667 25.6288 29.68C26.3354 29.88 26.9021 30.24 27.3288 30.76C27.7688 31.28 27.9888 32.0133 27.9888 32.96C27.9888 33.6533 27.8354 34.2533 27.5288 34.76C27.2221 35.2667 26.8154 35.68 26.3088 36L28.6688 40H25.0688L23.3088 36.76H22.3488V40H18.9088ZM22.3488 34.44H23.1688C23.6888 34.44 24.0821 34.3267 24.3488 34.1C24.6154 33.86 24.7488 33.5533 24.7488 33.18C24.7488 32.7667 24.6021 32.4733 24.3088 32.3C24.0288 32.1267 23.6354 32.04 23.1288 32.04H22.3488V34.44ZM30.4322 40V29.36H37.8722V32H33.8722V33.4H37.3122V35.88H33.8722V37.36H38.0722V40H30.4322ZM43.5284 35.12L43.4084 35.68H45.0884L44.9684 35.12C44.8618 34.64 44.7484 34.0933 44.6284 33.48C44.5218 32.8667 44.4018 32.3133 44.2684 31.82H44.1884C44.0818 32.3267 43.9684 32.8867 43.8484 33.5C43.7418 34.1 43.6351 34.64 43.5284 35.12ZM38.9484 40L42.2484 29.36H46.3684L49.6684 40H46.0684L45.6484 38.12H42.8484L42.4284 40H38.9484ZM55.8009 40.24C54.8409 40.24 53.9409 40.0467 53.1009 39.66C52.2743 39.26 51.6076 38.66 51.1009 37.86C50.5943 37.0467 50.3409 36.02 50.3409 34.78C50.3409 33.5667 50.6076 32.54 51.1409 31.7C51.6743 30.86 52.3743 30.22 53.2409 29.78C54.1076 29.34 55.0276 29.12 56.0009 29.12C56.7076 29.12 57.3676 29.26 57.9809 29.54C58.6076 29.82 59.1276 30.16 59.5409 30.56L57.7009 32.6C57.4209 32.3733 57.1543 32.2067 56.9009 32.1C56.6609 31.98 56.3743 31.92 56.0409 31.92C55.4676 31.92 54.9543 32.16 54.5009 32.64C54.0476 33.12 53.8209 33.7933 53.8209 34.66C53.8209 35.5933 54.0143 36.2933 54.4009 36.76C54.8009 37.2133 55.3209 37.44 55.9609 37.44C56.3609 37.44 56.7076 37.3667 57.0009 37.22C57.3076 37.06 57.5676 36.88 57.7809 36.68L59.6209 38.68C59.1276 39.2133 58.5476 39.6067 57.8809 39.86C57.2143 40.1133 56.5209 40.24 55.8009 40.24ZM63.073 40V32.16H60.273V29.36H69.313V32.16H66.513V40H63.073ZM80.0769 40.24C79.0102 40.24 78.0702 40.02 77.2569 39.58C76.4435 39.1267 75.8102 38.4867 75.3569 37.66C74.9035 36.82 74.6769 35.8133 74.6769 34.64C74.6769 33.4533 74.9035 32.4533 75.3569 31.64C75.8102 30.8133 76.4435 30.1867 77.2569 29.76C78.0702 29.3333 79.0102 29.12 80.0769 29.12C81.1302 29.12 82.0569 29.3333 82.8569 29.76C83.6702 30.1867 84.3035 30.8133 84.7569 31.64C85.2102 32.4533 85.4369 33.4533 85.4369 34.64C85.4369 35.8133 85.2102 36.82 84.7569 37.66C84.3035 38.4867 83.6702 39.1267 82.8569 39.58C82.0569 40.02 81.1302 40.24 80.0769 40.24ZM80.0769 37.44C80.6635 37.44 81.1169 37.1867 81.4369 36.68C81.7569 36.1733 81.9169 35.4933 81.9169 34.64C81.9169 33.76 81.7569 33.0867 81.4369 32.62C81.1169 32.1533 80.6635 31.92 80.0769 31.92C79.4769 31.92 79.0102 32.1533 78.6769 32.62C78.3569 33.0867 78.1969 33.76 78.1969 34.64C78.1969 35.4933 78.3569 36.1733 78.6769 36.68C79.0102 37.1867 79.4769 37.44 80.0769 37.44ZM89.2058 40V32.16H86.4058V29.36H95.4458V32.16H92.6458V40H89.2058ZM97.3658 40V29.36H101.946C102.746 29.36 103.492 29.4733 104.186 29.7C104.892 29.9133 105.459 30.2867 105.886 30.82C106.312 31.3533 106.526 32.0933 106.526 33.04C106.526 33.9467 106.306 34.6867 105.866 35.26C105.426 35.82 104.852 36.2333 104.146 36.5C103.452 36.7533 102.719 36.88 101.946 36.88H100.806V40H97.3658ZM100.806 34.56H101.846C102.312 34.56 102.666 34.4333 102.906 34.18C103.159 33.9267 103.286 33.6133 103.286 33.24C103.286 32.44 102.806 32.04 101.846 32.04H100.806V34.56ZM112.659 40V29.36H116.099V40H112.659ZM118.987 40V29.36H122.427L124.447 33.38L125.587 36H125.667C125.614 35.6133 125.554 35.16 125.487 34.64C125.42 34.12 125.36 33.5867 125.307 33.04C125.254 32.48 125.227 31.9733 125.227 31.52V29.36H128.387V40H125.027L122.927 35.96L121.787 33.36H121.707C121.76 33.7733 121.82 34.2467 121.887 34.78C121.954 35.3 122.014 35.8267 122.067 36.36C122.12 36.8933 122.147 37.3933 122.147 37.86V40H118.987ZM131.272 40V29.36H135.852C136.652 29.36 137.399 29.4733 138.092 29.7C138.799 29.9133 139.365 30.2867 139.792 30.82C140.219 31.3533 140.432 32.0933 140.432 33.04C140.432 33.9467 140.212 34.6867 139.772 35.26C139.332 35.82 138.759 36.2333 138.052 36.5C137.359 36.7533 136.625 36.88 135.852 36.88H134.712V40H131.272ZM134.712 34.56H135.752C136.219 34.56 136.572 34.4333 136.812 34.18C137.065 33.9267 137.192 33.6133 137.192 33.24C137.192 32.44 136.712 32.04 135.752 32.04H134.712V34.56ZM147.321 40.24C145.708 40.24 144.494 39.8133 143.681 38.96C142.881 38.0933 142.481 36.7333 142.481 34.88V29.36H145.881V35.12C145.881 35.96 145.994 36.56 146.221 36.92C146.448 37.2667 146.828 37.44 147.361 37.44C147.908 37.44 148.281 37.2667 148.481 36.92C148.694 36.56 148.801 35.96 148.801 35.12V29.36H152.081V34.88C152.081 36.7333 151.694 38.0933 150.921 38.96C150.161 39.8133 148.961 40.24 147.321 40.24ZM156.725 40V32.16H153.925V29.36H162.965V32.16H160.165V40H156.725ZM168.889 40V29.36H172.329V33.12H175.209V29.36H178.649V40H175.209V36.08H172.329V40H168.889ZM186.366 40.24C185.299 40.24 184.359 40.02 183.546 39.58C182.733 39.1267 182.099 38.4867 181.646 37.66C181.193 36.82 180.966 35.8133 180.966 34.64C180.966 33.4533 181.193 32.4533 181.646 31.64C182.099 30.8133 182.733 30.1867 183.546 29.76C184.359 29.3333 185.299 29.12 186.366 29.12C187.419 29.12 188.346 29.3333 189.146 29.76C189.959 30.1867 190.593 30.8133 191.046 31.64C191.499 32.4533 191.726 33.4533 191.726 34.64C191.726 35.8133 191.499 36.82 191.046 37.66C190.593 38.4867 189.959 39.1267 189.146 39.58C188.346 40.02 187.419 40.24 186.366 40.24ZM186.366 37.44C186.953 37.44 187.406 37.1867 187.726 36.68C188.046 36.1733 188.206 35.4933 188.206 34.64C188.206 33.76 188.046 33.0867 187.726 32.62C187.406 32.1533 186.953 31.92 186.366 31.92C185.766 31.92 185.299 32.1533 184.966 32.62C184.646 33.0867 184.486 33.76 184.486 34.64C184.486 35.4933 184.646 36.1733 184.966 36.68C185.299 37.1867 185.766 37.44 186.366 37.44ZM198.885 40.24C197.819 40.24 196.879 40.02 196.065 39.58C195.252 39.1267 194.619 38.4867 194.165 37.66C193.712 36.82 193.485 35.8133 193.485 34.64C193.485 33.4533 193.712 32.4533 194.165 31.64C194.619 30.8133 195.252 30.1867 196.065 29.76C196.879 29.3333 197.819 29.12 198.885 29.12C199.939 29.12 200.865 29.3333 201.665 29.76C202.479 30.1867 203.112 30.8133 203.565 31.64C204.019 32.4533 204.245 33.4533 204.245 34.64C204.245 35.8133 204.019 36.82 203.565 37.66C203.112 38.4867 202.479 39.1267 201.665 39.58C200.865 40.02 199.939 40.24 198.885 40.24ZM198.885 37.44C199.472 37.44 199.925 37.1867 200.245 36.68C200.565 36.1733 200.725 35.4933 200.725 34.64C200.725 33.76 200.565 33.0867 200.245 32.62C199.925 32.1533 199.472 31.92 198.885 31.92C198.285 31.92 197.819 32.1533 197.485 32.62C197.165 33.0867 197.005 33.76 197.005 34.64C197.005 35.4933 197.165 36.1733 197.485 36.68C197.819 37.1867 198.285 37.44 198.885 37.44ZM206.565 40V29.36H210.005V32.84H210.085L212.405 29.36H216.085L212.805 33.8L216.725 40H213.085L210.845 36.16L210.005 37.2V40H206.565Z" fill="white"/>
</g>
<rect x="1.5" y="1.5" width="240" height="65" rx="6.5" stroke="#020202" stroke-width="3"/>
<defs>
<filter id="filter0_f_51_112" x="-163" y="-90" width="400" height="400" filterUnits="userSpaceOnUse" color-interpolation-filters="sRGB">
<feFlood flood-opacity="0" result="BackgroundImageFix"/>
<feBlend mode="normal" in="SourceGraphic" in2="BackgroundImageFix" result="shape"/>
<feGaussianBlur stdDeviation="65" result="effect1_foregroundBlur_51_112"/>
</filter>
<filter id="filter1_f_51_112" x="-53" y="-67" width="399" height="399" filterUnits="userSpaceOnUse" color-interpolation-filters="sRGB">
<feFlood flood-opacity="0" result="BackgroundImageFix"/>
<feBlend mode="normal" in="SourceGraphic" in2="BackgroundImageFix" result="shape"/>
<feGaussianBlur stdDeviation="65" result="effect1_foregroundBlur_51_112"/>
</filter>
<filter id="filter2_f_51_112" x="107" y="-78" width="339" height="339" filterUnits="userSpaceOnUse" color-interpolation-filters="sRGB">
<feFlood flood-opacity="0" result="BackgroundImageFix"/>
<feBlend mode="normal" in="SourceGraphic" in2="BackgroundImageFix" result="shape"/>
<feGaussianBlur stdDeviation="60.5" result="effect1_foregroundBlur_51_112"/>
</filter>
<clipPath id="clip0_51_112">
<rect width="243" height="68" rx="8" fill="white"/>
</clipPath>
</defs>
</svg>
